<?xml version="1.0" standalone="no"?>
<!DOCTYPE svg PUBLIC "-//W3C//DTD SVG 20010904//EN"
 "http://www.w3.org/TR/2001/REC-SVG-20010904/DTD/svg10.dtd">
<svg version="1.0" xmlns="http://www.w3.org/2000/svg"
 width="512.000000pt" height="512.000000pt" viewBox="0 0 512.000000 512.000000"
 preserveAspectRatio="xMidYMid meet">

<g transform="translate(0.000000,512.000000) scale(0.100000,-0.100000)"
fill="#000000" stroke="none">
<path d="M2712 4618 c392 -605 1272 -1949 1281 -1956 10 -9 55 93 216 489 114
280 200 504 195 509 -11 9 -1696 980 -1702 980 -2 0 2 -10 10 -22z"/>
<path d="M1568 4142 c-466 -268 -847 -491 -847 -497 -1 -20 404 -989 414 -992
6 -1 285 416 620 928 743 1134 688 1049 673 1049 -7 0 -394 -220 -860 -488z"/>
<path d="M2512 4518 c-27 -40 -174 -264 -327 -498 -153 -234 -436 -666 -629
-960 -192 -294 -350 -542 -350 -550 0 -8 205 -328 455 -710 251 -382 553 -844
673 -1027 119 -182 223 -333 230 -336 10 -4 229 323 694 1034 l681 1039 -377
577 c-207 318 -512 784 -677 1037 -165 253 -305 461 -312 463 -6 2 -34 -29
-61 -69z m308 -1186 c241 -63 335 -114 485 -266 91 -92 146 -185 169 -287 8
-35 20 -140 26 -234 7 -93 19 -194 27 -223 17 -59 7 -162 -16 -162 -23 0 -35
67 -42 240 -11 263 -17 275 -57 108 -35 -147 -37 -176 -21 -261 10 -55 9 -60
-20 -111 -47 -81 -60 -184 -37 -282 19 -80 16 -102 -10 -66 -18 26 -27 27 -48
7 -13 -13 -19 -13 -36 -3 -16 10 -24 10 -41 0 -18 -11 -24 -11 -39 3 -15 13
-23 14 -39 5 -12 -6 -21 -16 -21 -22 0 -8 -3 -9 -10 -2 -7 7 -5 34 6 85 9 41
17 111 18 156 1 77 -1 83 -33 130 -96 135 -131 193 -151 248 -20 58 -21 59
-16 18 l4 -43 -86 0 c-85 0 -245 23 -271 40 -11 6 -11 15 -3 39 6 17 9 31 7
31 -7 0 -55 -97 -55 -110 0 -5 -18 -51 -41 -101 l-41 -91 22 -23 c13 -14 47
-34 76 -46 50 -21 53 -24 38 -40 -10 -11 -13 -25 -9 -38 4 -15 2 -21 -9 -21
-8 0 -17 -4 -20 -9 -3 -4 5 -6 18 -4 29 6 40 -10 26 -37 -14 -26 -24 -25 -38
3 -8 17 -11 18 -11 5 -1 -11 -9 -18 -22 -18 -19 0 -21 -4 -15 -30 7 -36 9 -37
-80 31 -35 27 -93 65 -128 86 -35 21 -70 47 -77 58 -20 32 -12 166 26 450 5
37 5 38 -8 17 -13 -23 -14 -23 -45 28 l-32 51 28 35 c15 19 30 34 34 34 3 0
15 -12 26 -27 l19 -27 27 41 c28 41 56 120 56 155 0 10 16 59 35 108 20 50 35
108 35 130 0 94 -54 151 -149 157 l-56 3 48 -14 c56 -15 96 -43 115 -77 17
-32 10 -144 -12 -187 -9 -18 -27 -75 -40 -127 -22 -89 -47 -145 -64 -145 -4 0
-15 14 -25 31 l-18 32 -31 -48 c-23 -35 -45 -54 -82 -70 -58 -26 -82 -48 -91
-87 -4 -14 -15 -34 -25 -43 -18 -17 -19 -15 -26 34 -5 41 -13 57 -37 77 l-31
26 -19 -23 c-63 -80 -131 -149 -136 -140 -4 7 -22 4 -53 -7 -26 -9 -50 -14
-53 -10 -4 3 14 25 39 48 l46 43 0 207 c0 192 2 214 25 296 31 106 47 132 105
161 24 13 48 30 52 38 5 8 30 27 56 42 47 28 49 28 202 25 123 -1 175 2 250
18 135 28 278 22 430 -18z m-919 -732 c12 -7 19 -21 19 -40 0 -49 -135 -146
-229 -165 -31 -7 -26 0 75 103 60 60 110 110 112 111 2 0 12 -4 23 -9z m16
-227 c-4 -65 -10 -162 -13 -215 -6 -81 -4 -102 10 -123 36 -55 76 -6 55 66
-14 44 -3 64 40 81 21 8 29 5 43 -12 22 -28 25 -135 4 -184 -40 -96 -164 -112
-235 -30 -40 45 -58 112 -71 269 -6 72 -13 136 -15 142 -3 8 16 23 43 37 26
13 65 38 87 54 22 17 44 31 49 31 5 1 6 -50 3 -116z m601 -200 l-3 -47 -28 25
-29 24 20 50 c36 94 36 94 40 43 2 -27 2 -69 0 -95z m877 -146 c-9 -40 -16
-106 -15 -147 3 -95 2 -100 -10 -100 -5 0 -10 10 -10 22 0 12 -5 47 -12 78
-15 72 0 172 34 223 19 31 23 33 26 16 2 -11 -4 -52 -13 -92z m-795 1 c0 -30
0 -31 -20 -13 -11 10 -20 24 -20 32 0 7 9 13 20 13 16 0 20 -7 20 -32z m-255
-65 c22 -14 58 -41 81 -60 26 -21 52 -33 71 -33 26 0 31 -5 37 -31 3 -17 6
-41 6 -52 0 -20 -1 -20 -25 3 l-25 23 -24 -22 c-20 -19 -24 -20 -29 -7 -8 21
-43 20 -57 -1 -10 -17 -10 -17 -20 0 -14 21 -34 22 -55 1 -24 -25 -29 -10 -16
54 6 32 8 79 5 105 -4 26 -3 47 2 47 5 0 27 -12 49 -27z m189 -32 c3 -4 -3
-16 -13 -25 -17 -15 -19 -16 -25 -1 -3 9 -6 21 -6 26 0 11 37 12 44 0z m-184
-160 c14 -28 13 -31 -13 -31 -31 0 -38 9 -26 31 13 24 26 24 39 0z m84 -32
c-3 -5 -16 -9 -30 -9 -27 0 -33 27 -11 49 10 10 15 8 29 -10 10 -11 15 -25 12
-30z m77 35 c10 -13 10 -17 -2 -25 -18 -11 -49 -12 -49 0 0 39 28 53 51 25z
m653 0 c10 -26 7 -34 -11 -34 -28 0 -44 15 -37 33 8 21 40 22 48 1z m76 -5
c15 -26 9 -31 -29 -27 -31 3 -31 4 -16 26 20 27 31 28 45 1z m78 -1 c2 -12 -5
-19 -23 -24 -33 -8 -40 -1 -25 26 13 24 43 23 48 -2z"/>
<path d="M2267 3160 c41 -25 56 -53 51 -101 -2 -24 0 -35 6 -29 5 5 9 30 10
55 1 39 -3 51 -27 71 -15 13 -38 24 -50 24 -19 0 -18 -3 10 -20z"/>
<path d="M2006 3001 c-10 -11 -16 -30 -14 -43 3 -22 5 -21 35 19 28 37 30 43
14 43 -10 0 -26 -9 -35 -19z"/>
<path d="M4323 3110 c-89 -217 -180 -440 -203 -495 l-42 -101 204 -499 203
-500 3 497 c1 273 1 721 0 995 l-3 498 -162 -395z"/>
<path d="M635 2505 c0 -547 2 -995 5 -995 5 0 399 948 408 982 4 16 -397 1007
-408 1008 -3 0 -5 -448 -5 -995z"/>
<path d="M3973 2343 c-36 -50 -1273 -1944 -1273 -1948 0 -7 1709 970 1709 978
1 11 -399 980 -409 990 -4 5 -17 -4 -27 -20z"/>
<path d="M927 1876 c-109 -266 -200 -492 -203 -502 -4 -16 135 -99 847 -507
469 -268 854 -485 857 -483 7 8 -1280 1976 -1292 1976 -6 0 -100 -218 -209
-484z"/>
</g>
</svg>
